<svg xmlns="http://www.w3.org/2000/svg"  viewBox="0 0 64 64" width="512px" height="512px"><defs><linearGradient id="EPR0H_Ta41d70g-0BYxnea" x1="2.88" x2="61.12" y1="61.12" y2="2.88" gradientUnits="userSpaceOnUse"><stop offset="0" stop-color="#41dfd0"/><stop offset="1" stop-color="#ee83ef"/></linearGradient></defs><path fill="url(#EPR0H_Ta41d70g-0BYxnea)" d="M59,2H5A3,3,0,0,0,2,5V59a3,3,0,0,0,3,3H59a3,3,0,0,0,3-3V5A3,3,0,0,0,59,2Zm1,57a1,1,0,0,1-1,1H5a1,1,0,0,1-1-1V5A1,1,0,0,1,5,4H59a1,1,0,0,1,1,1ZM57,6H7A1,1,0,0,0,6,7V57a1,1,0,0,0,1,1H57a1,1,0,0,0,1-1V7A1,1,0,0,0,57,6ZM8,8H9.356A9.055,9.055,0,0,0,8,9.356ZM8,26.644A9.055,9.055,0,0,0,9.356,28H8ZM32,56H8V30H32Zm0-28H30.644A9.055,9.055,0,0,0,32,26.644Zm0-7a7.008,7.008,0,0,1-7,7H15a7.008,7.008,0,0,1-7-7V15a7.008,7.008,0,0,1,7-7H25a7.008,7.008,0,0,1,7,7ZM32,9.356A9.055,9.055,0,0,0,30.644,8H32ZM37,56H34V43h1v6a1,1,0,0,0,1,1h1Zm7.632-23.975a5.635,5.635,0,0,1,2.595.793l-.1.223a7.638,7.638,0,0,0-.79-.041H44.189ZM44.281,28h.051a5.627,5.627,0,0,1,2.008.374l.573,2.086a7.652,7.652,0,0,0-2.123-.422ZM49.4,31.949l-.417-1.516a5.638,5.638,0,0,1,.858,1.908C49.7,32.2,49.543,32.079,49.4,31.949Zm.944,10.425.572,2.082a7.611,7.611,0,0,0-2.126-.433L48.281,42h.051A5.627,5.627,0,0,1,50.34,42.374Zm-1.113-2.556-.1.223a7.638,7.638,0,0,0-.79-.041H46.189l.443-.975A5.635,5.635,0,0,1,49.227,39.818ZM42.189,40l.455-1h1.8l-.454,1Zm.53,4H42a4.948,4.948,0,0,0-3,1.026V45a3,3,0,0,1,3-3h.219Zm3.5-2,.5,2H44.781l-.5-2Zm.571-4.962L46.281,35h.051a5.627,5.627,0,0,1,2.008.374l.573,2.087A7.617,7.617,0,0,0,46.79,37.038ZM44.219,35l.5,2H42.781l-.5-2Zm-3.575-3h1.8l-.455,1h-1.8Zm-.363-4h1.938l.5,2H40.781Zm-.062,7,.5,2H40a4.948,4.948,0,0,0-3,1.026V38a3,3,0,0,1,3-3ZM38,32h.447l-.713,1.568A4.988,4.988,0,0,0,35,38V35A3,3,0,0,1,38,32Zm-3-.974V31a3,3,0,0,1,3-3h.219l.5,2H38A4.948,4.948,0,0,0,35,31.026ZM37,45V42a3,3,0,0,1,3-3h.447l-.713,1.568A4.988,4.988,0,0,0,37,45Zm2,4a3,3,0,0,1,3-3h.447L39,53.584Zm1.553,6,4.091-9h1.8l-4.091,9Zm4,0,4.084-8.985a5.631,5.631,0,0,1,2.595.792L47.366,55Zm6.426-17.567a5.638,5.638,0,0,1,.858,1.908c-.138-.142-.294-.262-.441-.392ZM54,55H49.578l3.216-6.815A5.631,5.631,0,0,1,54,51.668ZM52.979,44.433a5.623,5.623,0,0,1,.858,1.909c-.144-.148-.3-.289-.45-.425ZM56,47.668a7.627,7.627,0,0,0-2-5.146V40.668a7.626,7.626,0,0,0-2.009-5.156c0-.015.009-.028.009-.043v-1.8a7.67,7.67,0,0,0-4.308-6.882.832.832,0,0,0-.085-.041A7.6,7.6,0,0,0,44.332,26H38a4.982,4.982,0,0,0-4,2.031V25H56ZM56,23H34V8H56ZM19.751,39.492a5.662,5.662,0,0,0-9.966,5.1l1.17,3.53a5.66,5.66,0,0,0,7.953,3.26l1.007-.515a5.661,5.661,0,0,0,2.012-8.355ZM20.9,46.678A3.653,3.653,0,0,1,19,49.081L18,49.6a3.661,3.661,0,0,1-5.144-2.108l-1.169-3.53a3.661,3.661,0,0,1,6.445-3.3l2.177,3.016A3.654,3.654,0,0,1,20.9,46.678ZM17.6,42.923a3,3,0,1,0,1.748,1.489A3,3,0,0,0,17.6,42.923Zm-.469,3.745a1,1,0,1,1-.909-1.78.979.979,0,0,1,.454-.111,1.022,1.022,0,0,1,.308.049,1,1,0,0,1,.147,1.842ZM20,35.121a3.109,3.109,0,0,0,4.4,2.84,3.1,3.1,0,0,0,1.1,2.161,3.121,3.121,0,1,0,3.994,0,3.108,3.108,0,0,0-3.276-5.22A3.114,3.114,0,0,0,20,35.121Zm7.5,1.5a1.122,1.122,0,1,1-1.121,1.121A1.122,1.122,0,0,1,27.5,36.621Zm0,4.758A1.121,1.121,0,1,1,26.379,42.5,1.122,1.122,0,0,1,27.5,41.379Zm-3.257-6.258A1.122,1.122,0,1,1,23.121,34,1.123,1.123,0,0,1,24.243,35.121ZM28,50H26V48h2Zm-5,2h2v2H23ZM10,52h2v2H10Zm18,0h2v2H28ZM13,35H11V33h2Zm-.724-21.445a1,1,0,1,1,1.579-1.227l.869,1.117a1,1,0,1,1-1.579,1.227ZM29.687,13.2a1,1,0,0,1-1.3,1.522L27.313,13.8a1,1,0,1,1,1.3-1.522Zm-9.394-.491a1,1,0,0,1,0-1.414l1-1a1,1,0,0,1,1.414,1.414l-1,1a1,1,0,0,1-1.414,0Zm-7.586,7-1,1a1,1,0,0,1-1.414-1.414l1-1a1,1,0,0,1,1.414,1.414Zm16,2.586a1,1,0,0,1,0,1.414l-1,1a1,1,0,0,1-1.414-1.414l1-1A1,1,0,0,1,28.707,22.293Zm-14,1a1,1,0,0,1,0,1.414l-1,1a1,1,0,0,1-1.414-1.414l1-1A1,1,0,0,1,14.707,23.293Zm14-5a1,1,0,1,1-1.414,1.414l-1-1a1,1,0,0,1,1.414-1.414Zm-6,6a1,1,0,1,1-1.414,1.414l-1-1a1,1,0,0,1,1.414-1.414ZM20,14a4,4,0,1,0,4,4A4,4,0,0,0,20,14Zm0,6a2,2,0,1,1,2-2A2,2,0,0,1,20,20Zm20,1a3.953,3.953,0,0,0,1.494-.3A3.994,3.994,0,0,0,43,21a3.953,3.953,0,0,0,1.494-.3,3.949,3.949,0,0,0,3,0A4,4,0,0,0,53,17V14a4,4,0,0,0-4-4,3.954,3.954,0,0,0-1.475.3,3.972,3.972,0,0,0-3.031-.009A3.953,3.953,0,0,0,43,10a3.994,3.994,0,0,0-1.506.3A3.953,3.953,0,0,0,40,10a4,4,0,0,0-4,4v3A4,4,0,0,0,40,21Zm9.479-8.936A2,2,0,0,1,51,14v3a2,2,0,0,1-1.521,1.936A3.953,3.953,0,0,0,50,17V14A3.953,3.953,0,0,0,49.479,12.064Zm-3,0A2,2,0,0,1,48,14v3a2,2,0,0,1-1.521,1.936A3.953,3.953,0,0,0,47,17V14A3.953,3.953,0,0,0,46.479,12.064Zm-3,0A2,2,0,0,1,45,14v3a2,2,0,0,1-1.521,1.936A3.953,3.953,0,0,0,44,17V14A3.953,3.953,0,0,0,43.479,12.064ZM38,14a2,2,0,0,1,4,0v3a2,2,0,0,1-4,0Z"/></svg>